<svg xmlns="http://www.w3.org/2000/svg" viewBox="0 0 64 64"><defs><linearGradient id="g" x1="8" y1="8" x2="56" y2="56"><stop stop-color="#46C9FF"/><stop offset=".5" stop-color="#168BFF"/><stop offset="1" stop-color="#8D5CFF"/></linearGradient></defs><rect width="64" height="64" rx="18" fill="#07121F"/><path fill="url(#g)" d="M10 23c0-3 3-4 6-2l11 9c2 1 3 1 5 0l8-6c2-1 4 0 4 2l3 11c1 2 2 2 4 1l4-3c2-2 5 0 5 3v4c0 1-1 2-2 3L47 52c-2 1-5 0-6-2l-9-13c-1-2-3-2-5-1l-2 2c-2 2-5 1-6-2l-6-10Z"/><circle cx="39" cy="16" r="7" fill="#00D4FF"/></svg>
